<?xml version="1.0" standalone="no"?>
<!DOCTYPE svg PUBLIC "-//W3C//DTD SVG 20010904//EN"
 "http://www.w3.org/TR/2001/REC-SVG-20010904/DTD/svg10.dtd">
<svg version="1.0" xmlns="http://www.w3.org/2000/svg"
 width="1456.000000pt" height="390.000000pt" viewBox="0 0 1456.000000 390.000000"
 preserveAspectRatio="xMidYMid meet">

<g transform="translate(0.000000,390.000000) scale(0.100000,-0.100000)"
fill="#000000" stroke="none">
<path d="M1340 3570 c-668 -181 -1243 -336 -1277 -345 l-63 -17 0 -578 0 -577
1280 551 1280 551 0 373 c0 204 -1 372 -2 371 -2 -1 -550 -149 -1218 -329z"/>
<path d="M13430 3890 c-727 -69 -1174 -399 -1380 -1018 -129 -386 -163 -938
-89 -1446 74 -510 269 -888 578 -1122 98 -74 288 -171 408 -208 470 -146 1040
-121 1511 66 l102 41 0 363 c0 214 -4 364 -9 364 -5 0 -31 -9 -57 -20 -69 -30
-273 -86 -395 -109 -244 -46 -525 -46 -719 0 -274 65 -432 232 -509 539 -46
182 -56 301 -56 640 1 245 4 329 19 425 71 467 253 666 661 725 91 13 365 13
496 0 175 -18 443 -71 532 -105 16 -7 17 13 15 356 l-3 363 -50 19 c-90 34
-310 86 -451 107 -160 24 -457 34 -604 20z"/>
<path d="M5510 1950 l0 -1890 738 0 c765 0 1054 9 1207 35 455 79 738 278 866
610 56 143 73 248 73 450 1 184 -6 239 -46 365 -78 245 -261 425 -526 514
l-67 23 70 35 c259 131 412 369 433 676 44 622 -307 993 -1002 1061 -68 7
-422 11 -928 11 l-818 0 0 -1890z m1651 1166 c130 -23 217 -82 258 -176 68
-154 45 -413 -45 -518 -47 -56 -139 -98 -237 -112 -43 -5 -245 -10 -448 -10
l-369 0 0 415 0 415 383 0 c275 -1 403 -4 458 -14z m8 -1446 c212 -24 323
-107 367 -275 17 -61 18 -265 3 -337 -34 -158 -120 -245 -281 -283 -51 -12
-150 -15 -500 -15 l-438 0 0 460 0 460 383 0 c210 0 420 -5 466 -10z"/>
<path d="M9705 3828 c-124 -355 -1295 -3755 -1295 -3760 0 -4 198 -8 440 -8
l440 0 10 23 c9 19 210 704 210 714 0 2 309 2 686 1 l686 -3 107 -365 106
-365 469 -3 468 -2 -4 22 c-3 13 -290 837 -638 1833 -348 996 -641 1836 -652
1868 l-20 57 -504 0 c-395 0 -506 -3 -509 -12z m559 -815 c39 -158 397 -1448
413 -1490 4 -11 -80 -13 -477 -13 -454 0 -481 1 -476 18 3 9 86 294 185 632
151 519 217 755 282 1003 5 20 14 37 18 37 5 0 30 -84 55 -187z"/>
<path d="M2760 2116 l0 -1076 541 2 540 3 195 480 c107 263 194 482 194 486 0
6 -1428 1155 -1457 1173 -10 6 -13 -211 -13 -1068z"/>
<path d="M1278 2388 l-1278 -551 0 -640 0 -639 22 14 c13 8 589 360 1281 782
l1257 768 0 409 c0 225 -1 409 -2 408 -2 0 -578 -248 -1280 -551z"/>
<path d="M1280 1109 l-1275 -780 -3 -134 -3 -135 794 0 793 0 486 468 487 467
0 448 c1 246 0 447 -1 446 -2 0 -577 -351 -1278 -780z"/>
<path d="M2280 454 c-220 -212 -400 -388 -400 -390 0 -2 374 -4 830 -4 l830 0
0 390 0 390 -430 0 -431 0 -399 -386z"/>
</g>
</svg>
